<?xml version="1.0" encoding="UTF-8"?>
<svg version="1.1" xmlns="http://www.w3.org/2000/svg" width="450" height="450" viewBox="140 180 450 450">
<path d="M0 0 C464.64 0 929.28 0 1408 0 C1408 253.44 1408 506.88 1408 768 C943.36 768 478.72 768 0 768 C0 514.56 0 261.12 0 0 Z " fill="none" transform="translate(0,0)"/>
<path d="M0 0 C0.79085495 -0.00807175 1.5817099 -0.01614349 2.39653015 -0.02445984 C4.068124 -0.03822783 5.73974509 -0.04898221 7.41137695 -0.05688477 C9.08366422 -0.06830683 10.75591792 -0.08859997 12.42797852 -0.1184082 C27.76274786 -0.39074908 42.42570617 1.51344208 56.69921875 7.42578125 C57.42834473 7.71984863 58.1574707 8.01391602 58.90869141 8.31689453 C76.39094607 15.56013356 90.84818499 25.24840191 104.63671875 38.23828125 C105.30058594 38.83769531 105.96445312 39.43710938 106.6484375 40.0546875 C124.98331062 57.27384826 136.06740531 81.06239793 141.63671875 105.23828125 C141.81332031 105.92253174 141.98992187 106.60678223 142.171875 107.31176758 C144.10934401 115.55210903 144.1218551 123.88194707 144.13671875 132.30078125 C144.13873291 133.09418915 144.14074707 133.88759705 144.14282227 134.70504761 C144.09901553 160.34776881 137.48444614 185.03934459 122.61035156 206.16625977 C121.17976759 208.18819797 121.17976759 208.18819797 119.63671875 211.23828125 C120.39137073 215.06692844 123.59784957 217.24173012 126.44921875 219.73828125 C127.30128906 220.49109375 128.15335938 221.24390625 129.03125 222.01953125 C129.89105469 222.75171875 130.75085938 223.48390625 131.63671875 224.23828125 C132.42433594 224.94339844 133.21195312 225.64851562 134.0234375 226.375 C137.15192856 228.60562816 139.94439629 229.49308471 143.63671875 230.55078125 C145.06292352 230.97775455 146.48868241 231.40621918 147.9140625 231.8359375 C148.67444824 232.06168457 149.43483398 232.28743164 150.21826172 232.52001953 C174.98191177 239.87461861 198.66567574 250.69608573 212.2734375 274.046875 C215.64604144 280.71562587 217.39572582 287.17120373 219.01171875 294.42578125 C220.92109053 302.80562963 223.52509254 308.05199294 229.63671875 314.23828125 C247.94518172 334.84621731 247.94518172 334.84621731 248.38671875 346.73828125 C248.00513383 351.62774222 246.94514189 354.50570129 243.63671875 358.23828125 C243.1159375 358.93050781 242.59515625 359.62273437 242.05859375 360.3359375 C237.70553461 365.89491167 237.70553461 365.89491167 233.29296875 367.3125 C229.15328651 367.22846799 227.82435598 366.25886057 224.95117188 363.3671875 C224.45552734 362.82964844 223.95988281 362.29210937 223.44921875 361.73828125 C221.57218105 359.74914599 219.73646647 358.01521867 217.63671875 356.23828125 C215.58013219 356.25719143 215.58013219 356.25719143 213.63671875 357.23828125 C203.77835441 358.33674498 203.77835441 358.33674498 199.3671875 356.07421875 C195.89004761 353.21930389 193.89354942 350.62107539 192.63671875 346.23828125 C192.91886501 344.29612884 193.23429055 342.35865769 193.57421875 340.42578125 C193.66998254 335.43479778 192.68671186 332.88370551 189.3515625 329.32421875 C185.68631077 325.79821908 181.81880477 322.51072437 177.93310547 319.23144531 C174.46512514 316.22138882 171.27549573 312.96426116 168.07421875 309.67578125 C164.07798044 305.6278099 160.03758139 301.74888185 155.69140625 298.07421875 C152.34528628 295.08433969 149.2366094 291.85830264 146.08447266 288.66650391 C142.10290097 284.65435375 137.97644661 280.8632304 133.63671875 277.23828125 C133.01796875 277.56828125 132.39921875 277.89828125 131.76171875 278.23828125 C126.03716541 280.07013832 120.71663049 280.23972024 115.26171875 277.61328125 C111.56429158 274.26799 108.89794384 271.74015538 108.359375 266.58203125 C108.30373681 261.98260747 108.63697137 257.73308046 109.63671875 253.23828125 C109.14042969 252.81417969 108.64414062 252.39007813 108.1328125 251.953125 C103.43350533 247.89584841 98.96517887 243.68847931 94.63671875 239.23828125 C91.0565662 240.53216095 88.29401467 242.07575977 85.26171875 244.36328125 C56.50569407 264.82429881 19.53739061 271.83667581 -15.11328125 266.11328125 C-17.54344604 265.54301653 -19.96120078 264.91718641 -22.36328125 264.23828125 C-23.04116699 264.05555664 -23.71905273 263.87283203 -24.41748047 263.68457031 C-41.64706007 258.94205552 -58.55558484 250.62393796 -72.36328125 239.23828125 C-72.91032715 238.7990332 -73.45737305 238.35978516 -74.02099609 237.90722656 C-82.14901213 231.36316568 -89.06483171 224.612491 -95.36328125 216.23828125 C-96.09933594 215.32820312 -96.83539063 214.418125 -97.59375 213.48046875 C-107.88306134 200.48157973 -114.43954817 185.9800641 -119.36328125 170.23828125 C-119.83894531 168.77841797 -119.83894531 168.77841797 -120.32421875 167.2890625 C-129.9063766 135.55409418 -124.61799185 100.19282045 -109.48828125 71.17578125 C-103.24962824 59.62836536 -95.3736166 49.76753644 -86.36328125 40.23828125 C-85.65558594 39.47773438 -84.94789063 38.7171875 -84.21875 37.93359375 C-63.02484854 15.86138647 -30.81068954 0.3081426 0 0 Z " fill="#FFFFFF" transform="translate(303.36328125,205.76171875)"/>
<path d="M0 0 C0.79085495 -0.00807175 1.5817099 -0.01614349 2.39653015 -0.02445984 C4.068124 -0.03822783 5.73974509 -0.04898221 7.41137695 -0.05688477 C9.08366422 -0.06830683 10.75591792 -0.08859997 12.42797852 -0.1184082 C27.76274786 -0.39074908 42.42570617 1.51344208 56.69921875 7.42578125 C57.42834473 7.71984863 58.1574707 8.01391602 58.90869141 8.31689453 C76.39094607 15.56013356 90.84818499 25.24840191 104.63671875 38.23828125 C105.30058594 38.83769531 105.96445312 39.43710938 106.6484375 40.0546875 C124.98331062 57.27384826 136.06740531 81.06239793 141.63671875 105.23828125 C141.81332031 105.92253174 141.98992187 106.60678223 142.171875 107.31176758 C144.10934401 115.55210903 144.1218551 123.88194707 144.13671875 132.30078125 C144.13873291 133.09418915 144.14074707 133.88759705 144.14282227 134.70504761 C144.09901553 160.34776881 137.48444614 185.03934459 122.61035156 206.16625977 C121.17976759 208.18819797 121.17976759 208.18819797 119.63671875 211.23828125 C120.39137073 215.06692844 123.59784957 217.24173012 126.44921875 219.73828125 C127.30128906 220.49109375 128.15335938 221.24390625 129.03125 222.01953125 C129.89105469 222.75171875 130.75085938 223.48390625 131.63671875 224.23828125 C132.42433594 224.94339844 133.21195312 225.64851562 134.0234375 226.375 C137.15192856 228.60562816 139.94439629 229.49308471 143.63671875 230.55078125 C145.06292352 230.97775455 146.48868241 231.40621918 147.9140625 231.8359375 C148.67444824 232.06168457 149.43483398 232.28743164 150.21826172 232.52001953 C174.98191177 239.87461861 198.66567574 250.69608573 212.2734375 274.046875 C215.64604144 280.71562587 217.39572582 287.17120373 219.01171875 294.42578125 C220.92109053 302.80562963 223.52509254 308.05199294 229.63671875 314.23828125 C247.94518172 334.84621731 247.94518172 334.84621731 248.38671875 346.73828125 C248.00513383 351.62774222 246.94514189 354.50570129 243.63671875 358.23828125 C243.1159375 358.93050781 242.59515625 359.62273437 242.05859375 360.3359375 C237.70553461 365.89491167 237.70553461 365.89491167 233.29296875 367.3125 C229.15328651 367.22846799 227.82435598 366.25886057 224.95117188 363.3671875 C224.45552734 362.82964844 223.95988281 362.29210937 223.44921875 361.73828125 C221.57218105 359.74914599 219.73646647 358.01521867 217.63671875 356.23828125 C215.58013219 356.25719143 215.58013219 356.25719143 213.63671875 357.23828125 C203.77835441 358.33674498 203.77835441 358.33674498 199.3671875 356.07421875 C195.89004761 353.21930389 193.89354942 350.62107539 192.63671875 346.23828125 C192.91886501 344.29612884 193.23429055 342.35865769 193.57421875 340.42578125 C193.66998254 335.43479778 192.68671186 332.88370551 189.3515625 329.32421875 C185.68631077 325.79821908 181.81880477 322.51072437 177.93310547 319.23144531 C174.46512514 316.22138882 171.27549573 312.96426116 168.07421875 309.67578125 C164.07798044 305.6278099 160.03758139 301.74888185 155.69140625 298.07421875 C152.34528628 295.08433969 149.2366094 291.85830264 146.08447266 288.66650391 C142.10290097 284.65435375 137.97644661 280.8632304 133.63671875 277.23828125 C133.01796875 277.56828125 132.39921875 277.89828125 131.76171875 278.23828125 C126.03716541 280.07013832 120.71663049 280.23972024 115.26171875 277.61328125 C111.56429158 274.26799 108.89794384 271.74015538 108.359375 266.58203125 C108.30373681 261.98260747 108.63697137 257.73308046 109.63671875 253.23828125 C109.14042969 252.81417969 108.64414062 252.39007813 108.1328125 251.953125 C103.43350533 247.89584841 98.96517887 243.68847931 94.63671875 239.23828125 C91.0565662 240.53216095 88.29401467 242.07575977 85.26171875 244.36328125 C56.50569407 264.82429881 19.53739061 271.83667581 -15.11328125 266.11328125 C-17.54344604 265.54301653 -19.96120078 264.91718641 -22.36328125 264.23828125 C-23.04116699 264.05555664 -23.71905273 263.87283203 -24.41748047 263.68457031 C-41.64706007 258.94205552 -58.55558484 250.62393796 -72.36328125 239.23828125 C-72.91032715 238.7990332 -73.45737305 238.35978516 -74.02099609 237.90722656 C-82.14901213 231.36316568 -89.06483171 224.612491 -95.36328125 216.23828125 C-96.09933594 215.32820312 -96.83539063 214.418125 -97.59375 213.48046875 C-107.88306134 200.48157973 -114.43954817 185.9800641 -119.36328125 170.23828125 C-119.83894531 168.77841797 -119.83894531 168.77841797 -120.32421875 167.2890625 C-129.9063766 135.55409418 -124.61799185 100.19282045 -109.48828125 71.17578125 C-103.24962824 59.62836536 -95.3736166 49.76753644 -86.36328125 40.23828125 C-85.65558594 39.47773438 -84.94789063 38.7171875 -84.21875 37.93359375 C-63.02484854 15.86138647 -30.81068954 0.3081426 0 0 Z M-59.36328125 51.23828125 C-60.22824219 51.93695313 -61.09320313 52.635625 -61.984375 53.35546875 C-82.73518739 71.03088773 -95.25214271 97.92847567 -97.59082031 124.85839844 C-99.30132593 153.74335172 -90.17806863 181.29429765 -71.36328125 203.23828125 C-70.88503906 203.84929687 -70.40679687 204.4603125 -69.9140625 205.08984375 C-55.17811875 223.58366428 -30.0909284 235.57773402 -7.2265625 239.8203125 C22.8989657 243.07959614 52.21602788 237.03880711 76.26171875 217.98828125 C78.07411321 216.42871714 79.86519655 214.84412152 81.63671875 213.23828125 C82.12382324 212.80032227 82.61092773 212.36236328 83.11279297 211.91113281 C101.17609786 195.46673639 114.18051074 171.77555117 116.63671875 147.23828125 C118.27290347 112.13520552 111.1027099 84.83123799 87.07421875 58.421875 C67.15408531 37.60417741 40.24040883 26.61503856 11.62988281 25.95483398 C-15.21909137 25.68287042 -38.46760254 34.28030265 -59.36328125 51.23828125 Z " fill="#1A1A1A" transform="translate(303.36328125,205.76171875)"/>
<path d="M0 0 C1.75056209 1.51732852 3.47978996 3.05959913 5.1875 4.625 C6.10015625 5.45644531 7.0128125 6.28789062 7.953125 7.14453125 C24.41555017 22.84821336 34.78107226 42.33057391 39.1875 64.625 C39.3618457 65.38844727 39.53619141 66.15189453 39.71582031 66.93847656 C44.53922317 94.41090156 37.35894108 122.64788307 22.19921875 145.640625 C4.56633233 170.26864187 -21.03767019 186.05187317 -50.83862305 191.23242188 C-56.07647325 191.92386454 -61.28569843 191.96482476 -66.5625 191.9375 C-67.70702637 191.93186035 -68.85155273 191.9262207 -70.03076172 191.92041016 C-94.80030946 191.56590763 -116.63573437 182.0962411 -135.8125 166.625 C-136.98232422 165.70460938 -136.98232422 165.70460938 -138.17578125 164.765625 C-158.63034715 147.76254002 -171.3569746 120.86738374 -173.8125 94.625 C-175.97868887 64.93823273 -167.26719962 38.88526336 -148.8125 15.625 C-148.27496094 14.94308594 -147.73742187 14.26117188 -147.18359375 13.55859375 C-135.79271978 -0.31530452 -120.14686125 -9.53797909 -103.8125 -16.375 C-102.98234375 -16.72304687 -102.1521875 -17.07109375 -101.296875 -17.4296875 C-99.14865056 -18.2250225 -97.03745582 -18.82787972 -94.8125 -19.375 C-93.71679688 -19.65085938 -92.62109375 -19.92671875 -91.4921875 -20.2109375 C-59.9049082 -27.16652021 -25.47645204 -20.171865 0 0 Z M-98.8125 -2.6875 C-99.48619629 -2.42694824 -100.15989258 -2.16639648 -100.85400391 -1.89794922 C-123.78431489 7.27091417 -142.0214123 25.16134696 -152.1875 47.5625 C-153.10142296 49.90183121 -153.97688927 52.25656583 -154.8125 54.625 C-155.43125 56.33236328 -155.43125 56.33236328 -156.0625 58.07421875 C-163.06586006 80.95672505 -159.96590008 106.4859323 -149.3203125 127.58203125 C-135.78055091 152.29695492 -113.9110853 167.65582684 -87.39453125 175.65625 C-64.0417275 181.56973841 -39.74970663 176.29439072 -19.0390625 164.62890625 C2.35128605 151.3441014 18.14315333 131.10124938 24.28515625 106.50390625 C29.87963134 80.89573593 25.45138422 55.45835443 11.4375 33.375 C-3.12621801 12.73373044 -24.61700594 -2.10604884 -49.65332031 -6.92138672 C-54.90403148 -7.67531418 -60.14144419 -7.55949429 -65.4375 -7.5625 C-66.54996094 -7.57474609 -67.66242188 -7.58699219 -68.80859375 -7.59960938 C-79.19245703 -7.61774185 -89.10620862 -6.51057473 -98.8125 -2.6875 Z " fill="#C9A84C" transform="translate(379.8125,254.375)"/>
<path d="M0 0 C6.34644773 6.22649768 9.20253222 13.73826726 11.2734375 22.23046875 C11.44729477 22.79260071 11.62115204 23.35473267 11.80027771 23.93389893 C12.44265598 27.0518024 12.39260747 30.01860725 12.38696289 33.20214844 C12.38710892 33.89523605 12.38725494 34.58832367 12.3874054 35.30241394 C12.38671057 37.58575608 12.37893835 39.86901592 12.37109375 42.15234375 C12.36922804 43.7384639 12.36780486 45.32458463 12.36680603 46.91070557 C12.36299288 51.0798299 12.35317287 55.24891925 12.34210205 59.41802979 C12.33186207 63.67451504 12.32730287 67.93100597 12.32226562 72.1875 C12.31154951 80.53517407 12.29396245 88.88281302 12.2734375 97.23046875 C4.3534375 97.23046875 -3.5665625 97.23046875 -11.7265625 97.23046875 C-12.0565625 93.27046875 -12.3865625 89.31046875 -12.7265625 85.23046875 C-13.3865625 85.95234375 -14.0465625 86.67421875 -14.7265625 87.41796875 C-24.07072758 96.60596394 -35.6346894 98.74416662 -48.35693359 98.65209961 C-58.75321252 98.29839733 -68.09400245 95.47720708 -75.7265625 88.23046875 C-76.36464844 87.63234375 -77.00273438 87.03421875 -77.66015625 86.41796875 C-83.62893098 80.26305759 -85.7724023 73.66030181 -86.1015625 65.16796875 C-85.77991493 56.60410208 -82.78292946 49.33848916 -76.7265625 43.23046875 C-63.93357789 32.67930239 -46.91834501 32.65362085 -31.2265625 32.98046875 C-29.51694843 33.00060096 -27.80731099 33.01883964 -26.09765625 33.03515625 C-21.97336361 33.07853655 -17.8502341 33.1471752 -13.7265625 33.23046875 C-14.01689045 31.6329109 -14.31534316 30.03682826 -14.6171875 28.44140625 C-14.78250977 27.55243652 -14.94783203 26.6634668 -15.11816406 25.74755859 C-16.29610565 20.87413251 -18.69137502 18.05861873 -22.5390625 14.98046875 C-28.38242562 11.77234782 -34.00483121 10.88599155 -40.6015625 10.98046875 C-41.66080933 10.99388306 -41.66080933 10.99388306 -42.74145508 11.00756836 C-52.77434289 11.2303675 -59.36915849 13.82096236 -68.00390625 18.76953125 C-70.7265625 20.23046875 -70.7265625 20.23046875 -72.7265625 20.23046875 C-74.2883002 17.65749093 -75.82562992 15.07455413 -77.3515625 12.48046875 C-77.79757812 11.75085938 -78.24359375 11.02125 -78.703125 10.26953125 C-79.115625 9.56054688 -79.528125 8.8515625 -79.953125 8.12109375 C-80.34064941 7.47172852 -80.72817383 6.82236328 -81.12744141 6.15332031 C-81.7265625 4.23046875 -81.7265625 4.23046875 -81.03979492 2.11450195 C-76.35244417 -4.61022118 -62.43643095 -8.89949379 -54.72265625 -10.36328125 C-35.60441064 -12.66507486 -15.66555056 -12.53714482 0 0 Z " fill="#1A1A1A" transform="translate(734.7265625,360.76953125)"/>
<path d="M0 0 C8.74959497 7.97222074 13.40870437 19.09701353 13.99038696 30.82948303 C14.04737291 35.05842013 14.04172079 39.2827179 14.01171875 43.51171875 C14.00798204 45.06827105 14.00513818 46.62482572 14.00314331 48.18138123 C13.9955586 52.25019995 13.97595535 56.31887268 13.95373535 60.38763428 C13.93316483 64.55072048 13.92411778 68.7138306 13.9140625 72.87695312 C13.89270382 81.02481358 13.85756467 89.17252798 13.81640625 97.3203125 C5.89640625 97.3203125 -2.02359375 97.3203125 -10.18359375 97.3203125 C-10.51359375 93.6903125 -10.84359375 90.0603125 -11.18359375 86.3203125 C-11.84359375 87.0421875 -12.50359375 87.7640625 -13.18359375 88.5078125 C-21.85319262 97.03251557 -32.28523822 99.57120505 -44.24609375 99.6953125 C-57.29078574 99.55983122 -68.22396899 95.6264138 -77.578125 86.45703125 C-82.32188413 80.14356107 -83.83469013 74.66473299 -83.68359375 66.8203125 C-83.6990625 66.01722656 -83.71453125 65.21414063 -83.73046875 64.38671875 C-83.68439333 57.27958533 -81.52918521 52.13502225 -76.99609375 46.6953125 C-62.92853089 34.8160372 -48.46034941 33.70324944 -30.74609375 34.0703125 C-29.03192227 34.09043912 -27.31772756 34.10867884 -25.60351562 34.125 C-21.46295238 34.16843722 -17.32354092 34.23711035 -13.18359375 34.3203125 C-13.83452311 26.45852065 -14.85462132 21.08304803 -21.03515625 15.7109375 C-29.55357687 10.35306163 -41.77048417 10.79652509 -51.36425781 12.76855469 C-56.86564137 14.25390158 -61.70680053 16.33578369 -66.44140625 19.4921875 C-69.18359375 21.3203125 -69.18359375 21.3203125 -71.18359375 21.3203125 C-72.74533145 18.74733468 -74.28266117 16.16439788 -75.80859375 13.5703125 C-76.25460937 12.84070313 -76.700625 12.11109375 -77.16015625 11.359375 C-77.57265625 10.65039062 -77.98515625 9.94140625 -78.41015625 9.2109375 C-78.79768066 8.56157227 -79.18520508 7.91220703 -79.58447266 7.24316406 C-80.18359375 5.3203125 -80.18359375 5.3203125 -79.46728516 3.18847656 C-74.87422397 -3.49583386 -60.0669166 -7.97587588 -52.45898438 -9.38671875 C-34.90496342 -11.64689312 -14.56776235 -11.20597104 0 0 Z " fill="#1A1A1A" transform="translate(965.18359375,359.6796875)"/>
<path d="M0 0 C-0.61811534 4.55315948 -2.46765893 8.28459767 -4.5625 12.3125 C-4.89185547 12.95767578 -5.22121094 13.60285156 -5.56054688 14.26757812 C-6.36824255 15.84785228 -7.18337613 17.42432105 -8 19 C-9.175625 18.5875 -10.35125 18.175 -11.5625 17.75 C-32.13572523 10.91812525 -32.13572523 10.91812525 -53.15234375 14.02734375 C-56.20617789 15.63496468 -58.05312581 17.14458451 -60 20 C-60.1404234 24.00206686 -59.84936526 26.06160274 -57.13671875 29.05859375 C-52.5763351 31.88114752 -47.91800553 32.54638312 -42.6875 33.5 C-40.52175682 33.92646726 -38.35639147 34.35485772 -36.19140625 34.78515625 C-35.13453613 34.99156738 -34.07766602 35.19797852 -32.98876953 35.41064453 C-6.67836354 40.59879353 -6.67836354 40.59879353 1 52 C5.11417042 58.95152933 4.96645385 66.72477271 3.53125 74.55859375 C1.07249562 83.00324421 -4.33253054 89.73859765 -12 94 C-29.95653633 103.10516948 -53.2307656 102.11113875 -72 96 C-78.01902271 93.83898524 -83.56352705 91.37335102 -89 88 C-87.55676531 83.26210835 -85.62773267 79.01141849 -83.375 74.625 C-83.05015625 73.98433594 -82.7253125 73.34367187 -82.390625 72.68359375 C-81.59742593 71.12052499 -80.79922969 69.55999378 -80 68 C-75.63489116 69.70058998 -71.43152784 71.66318234 -67.20703125 73.68359375 C-59.18419637 76.97676714 -52.05300926 78.48918433 -43.375 78.375 C-42.48554687 78.38660156 -41.59609375 78.39820313 -40.6796875 78.41015625 C-34.2089292 78.38160879 -28.06561582 77.68241384 -23 73.25 C-21.15984417 69.10964938 -21.59602392 65.21192824 -23 61 C-25.13069884 60.04827366 -25.13069884 60.04827366 -27.77734375 59.46875 C-29.27370361 59.0975 -29.27370361 59.0975 -30.80029297 58.71875 C-37.09810643 57.30407254 -43.4292911 56.09117149 -49.77148438 54.89453125 C-61.52384557 52.62081504 -72.41307492 50.28091202 -80.875 41.1875 C-85.65484187 34.01773719 -87.08873016 26.54900611 -86 18 C-83.45459925 8.62141033 -76.70582659 1.28910867 -68.51953125 -3.6796875 C-47.50875314 -14.68998673 -20.40986584 -10.20493292 0 0 Z " fill="#1A1A1A" transform="translate(1225,359)"/>
<path d="M0 0 C39.27 0 78.54 0 119 0 C119 7.26 119 14.52 119 22 C103.82 22 88.64 22 73 22 C73 61.27 73 100.54 73 141 C64.42 141 55.84 141 47 141 C47 101.73 47 62.46 47 22 C31.49 22 15.98 22 0 22 C0 14.74 0 7.48 0 0 Z " fill="#1A1A1A" transform="translate(530,316)"/>
<path d="M0 0 C24.4345975 -2.51007323 24.4345975 -2.51007323 31.35791016 1.29638672 C35.13721407 4.76506291 37.4281997 9.08731537 39.72119141 13.62451172 C41.99752061 17.85297357 44.92034887 21.63038106 47.75 25.5 C48.76941606 26.94525005 49.7854061 28.39292696 50.796875 29.84375 C51.52390625 30.8853125 52.2509375 31.926875 53 33 C56.18527866 29.92380623 58.96051717 26.87453459 61.5 23.25 C62.20640625 22.31027344 62.9128125 21.37054688 63.640625 20.40234375 C65.47973473 17.8731815 66.95256914 15.26261477 68.421875 12.50390625 C71.29128363 7.54615715 73.99950308 3.01510713 79 0 C88.148983 -2.08022937 97.75816891 -1.0546549 107 0 C104.30641867 4.95392929 101.35923496 9.31386125 97.8125 13.6875 C96.8257595 14.92363104 95.84009721 16.16062348 94.85546875 17.3984375 C94.36997559 18.0078418 93.88448242 18.61724609 93.38427734 19.24511719 C90.6771088 22.67706207 88.08324547 26.19286516 85.484375 29.70703125 C83.54481004 32.30810888 81.53823409 34.84974863 79.515625 37.38671875 C78.91411621 38.14944092 78.31260742 38.91216309 77.69287109 39.69799805 C76.49767965 41.21148987 75.29250779 42.71716289 74.07666016 44.21411133 C73.53315918 44.90657959 72.9896582 45.59904785 72.4296875 46.3125 C71.93710449 46.92738281 71.44452148 47.54226563 70.93701172 48.17578125 C69.79851836 49.97256105 69.79851836 49.97256105 70.25415039 52.08813477 C71.2902587 54.74403138 72.81625837 56.68097144 74.5625 58.9375 C74.94889648 59.44200684 75.33529297 59.94651367 75.73339844 60.46630859 C76.63030907 61.63665097 77.53011487 62.80477782 78.43212891 63.97119141 C81.55370711 68.01048055 84.6516287 72.06789851 87.75 76.125 C88.43199463 77.01791748 89.11398926 77.91083496 89.81665039 78.83081055 C94.45142236 84.91793837 99.01362586 91.05267791 103.5 97.25 C104.0578418 98.01844238 104.61568359 98.78688477 105.19042969 99.57861328 C105.69477539 100.27970215 106.19912109 100.98079102 106.71875 101.703125 C107.38293945 102.62593262 107.38293945 102.62593262 108.06054688 103.56738281 C109 105 109 105 109 106 C83.56420516 108.6768146 83.56420516 108.6768146 76.59472656 104.58935547 C72.78018169 100.82652292 70.53125571 96.20851739 68.24951172 91.41308594 C66.12161194 87.30363666 63.27368039 83.7646381 60.4375 80.125 C59.45698916 78.81513567 58.47651738 77.50524211 57.49609375 76.1953125 C55.80670297 73.94743173 54.0216608 71.95592469 52 70 C51.75894531 70.70769531 51.51789062 71.41539062 51.26953125 72.14453125 C49.54110117 76.03216937 47.031925 79.06273472 44.3293457 82.32885742 C41.60282824 85.69525753 39.4242921 88.97843525 37.46875 92.8515625 C32.08217685 102.81965032 32.08217685 102.81965032 27 106 C17.57363011 108.19365094 7.52629674 107.10803929 -2 106 C-0.08835326 101.98706335 2.44165146 98.58655807 5.125 95.0625 C5.64489502 94.37446289 6.16479004 93.68642578 6.70043945 92.97753906 C8.46271576 90.6484397 10.23065944 88.32373702 12 86 C12.65500488 85.13938965 13.31000977 84.2787793 13.98486328 83.39208984 C15.35916267 81.58707409 16.73400582 79.78247222 18.109375 77.97827148 C19.4902053 76.16544505 20.86912594 74.35116238 22.24609375 72.53540039 C25.15021148 68.70997391 28.05933977 64.89831724 31.08984375 61.171875 C31.52723877 60.62370117 31.96463379 60.07552734 32.4152832 59.51074219 C33.52730712 58.12200273 34.65736027 56.74775072 35.7890625 55.375 C37.25275685 53.09054386 37.25275685 53.09054386 36.6015625 50.6953125 C34.30064224 46.82303206 31.56743835 43.38299816 28.75 39.875 C22.97058654 32.57099762 17.36966363 25.16099938 11.88378906 17.63427734 C8.4617819 12.94823937 4.94566949 8.36536134 1.30053711 3.84985352 C0 2 0 2 0 0 Z " fill="#1A1A1A" transform="translate(764,351)"/>
<path d="M0 0 C0 7.92 0 15.84 0 24 C-2.43375 24.061875 -4.8675 24.12375 -7.375 24.1875 C-16.15144247 24.62952391 -23.13497047 26.65400373 -29.375 33.1875 C-35.77619353 41.88701635 -36.59908478 50.54186003 -36.609375 61.1015625 C-36.62591125 62.41917572 -36.64244751 63.73678894 -36.65948486 65.09432983 C-36.7028016 68.5630183 -36.72307695 72.03145565 -36.73822021 75.50036621 C-36.7579217 79.05377843 -36.79987597 82.60692443 -36.83984375 86.16015625 C-36.91475801 93.10669601 -36.96322072 100.05315457 -37 107 C-45.25 107 -53.5 107 -62 107 C-62 72.02 -62 37.04 -62 1 C-54.08 1 -46.16 1 -38 1 C-37.67 5.29 -37.34 9.58 -37 14 C-35.68 12.7625 -34.36 11.525 -33 10.25 C-22.75082892 1.17170449 -13.87019101 0 0 0 Z " fill="#1A1A1A" transform="translate(1071,350)"/>
<path d="M0 0 C8.25 0 16.5 0 25 0 C25 34.98 25 69.96 25 106 C16.75 106 8.5 106 0 106 C0 71.02 0 36.04 0 0 Z " fill="#1A1A1A" transform="translate(1091,351)"/>
<path d="M0 0 C0.7427417 -0.01393799 1.4854834 -0.02787598 2.25073242 -0.04223633 C7.4518704 0.00379144 7.4518704 0.00379144 9.97265625 1.7109375 C11.61478224 4.37080698 11.44315388 6.33623055 11 9.375 C7.89860391 12.46913287 5.5267054 12.69572709 1.25 12.75 C-17.07237915 13.79993409 -33.58935435 22.56183378 -46.22265625 35.68359375 C-51.80382217 42.23259191 -55.52120441 49.57546627 -59 57.375 C-59.51046875 58.49455078 -59.51046875 58.49455078 -60.03125 59.63671875 C-62.34783836 65.53243612 -62.71032191 71.8130062 -63.17895508 78.08105469 C-63.81314987 85.46393497 -63.81314987 85.46393497 -67 88.375 C-70.05891646 88.82109198 -72.01666729 89.01358783 -74.66015625 87.296875 C-78.39711607 81.93657112 -76.46283954 71.60180689 -75.37890625 65.32421875 C-72.44369382 51.11779057 -65.81715037 38.04660606 -56 27.375 C-55.26265625 26.54613281 -54.5253125 25.71726562 -53.765625 24.86328125 C-44.34588906 14.81248457 -32.96879502 7.91764111 -20 3.375 C-19.1440625 3.05660156 -18.288125 2.73820312 -17.40625 2.41015625 C-11.61093802 0.5162064 -6.05215241 0.07454488 0 0 Z " fill="#1A1A1A" transform="translate(308,257.625)"/>
<path d="M0 0 C1.54880498 0.02009961 3.0976352 0.03834426 4.64648438 0.0546875 C8.41078817 0.09840137 12.17386063 0.16723368 15.9375 0.25 C15.97823048 2.15867541 16.00719833 4.06760406 16.03125 5.9765625 C16.04865234 7.03955566 16.06605469 8.10254883 16.08398438 9.19775391 C15.82547362 14.58425627 13.99864921 18.16510483 10.2421875 21.96484375 C3.09979397 27.87828293 -5.22075712 29.89613681 -14.3828125 29.59765625 C-20.23241774 28.83874245 -24.51142575 26.83890533 -28.625 22.625 C-30.57741926 18.04105914 -30.84367059 14.15904045 -30.0625 9.25 C-27.8437206 4.8124412 -24.45728573 2.99446454 -20.04711914 1.08349609 C-13.57005106 -0.72531457 -6.67039431 -0.15113002 0 0 Z " fill="#FFFFFF" transform="translate(937.0625,410.75)"/>
<path d="M0 0 C0.68100266 0.00141495 1.36200531 0.0028299 2.06364441 0.00428772 C4.22346522 0.00985327 6.38317964 0.02239922 8.54296875 0.03515625 C10.01367037 0.04017571 11.48437363 0.04473784 12.95507812 0.04882812 C16.54690915 0.05981137 20.13867855 0.07705203 23.73046875 0.09765625 C23.78983083 2.16892157 23.83209621 4.24068136 23.8671875 6.3125 C23.89256592 7.46613037 23.91794434 8.61976074 23.9440918 9.80834961 C23.55163659 15.8512628 20.55025904 19.32575518 16.35546875 23.41015625 C8.36501571 28.54687606 -0.34424123 30.5254352 -9.67578125 28.6015625 C-14.72103658 27.11321218 -17.85764775 25.25588926 -21.26953125 21.09765625 C-23.12313958 17.39043958 -22.72268356 13.14411487 -22.26953125 9.09765625 C-19.84462024 4.71416328 -16.85043119 2.96741133 -12.26953125 1.09765625 C-8.14519831 0.04305491 -4.24751422 -0.01747948 0 0 Z " fill="#FFFFFF" transform="translate(697.26953125,410.90234375)"/>
<path d="M0 0 C3.34497737 1.98779393 5.21019517 3.52369832 6.5 7.3125 C7.13375571 12.55903462 7.13036013 16.86792471 5 21.75 C0.84547414 26.00838901 -3.60203477 28.48462031 -9.625 28.75 C-15.19590584 28.12102676 -18.65160198 26.51730287 -22.3125 22.3125 C-25.18165079 18.37766463 -25.91047747 15.31453837 -25.84765625 10.44140625 C-25.06784007 5.6661274 -21.83089723 2.52596512 -18.375 -0.625 C-12.35262945 -2.85065868 -5.85651291 -2.66303545 0 0 Z " fill="#1A1A1A" transform="translate(1112.5,306.6875)"/>
<path d="M0 0 C9.24368412 4.62184206 14.20768823 13.70233843 18 23 C19.54549256 27.63647767 21 32.08941484 21 37 C17.06785699 35.41060574 14.66979654 32.83657498 11.75 29.8125 C8.50567508 26.48526516 5.23831423 23.25348255 1.6875 20.25 C-1.9706642 17.13490347 -4.96323955 13.72003155 -8 10 C-5.36 6.7 -2.72 3.4 0 0 Z " fill="#FFFFFF" transform="translate(494,468)"/>
<path d="M0 0 C39.27 0 78.54 0 119 0 C119 0.66 119 1.32 119 2 C80.39 2 41.78 2 2 2 C2 8.27 2 14.54 2 21 C16.85 21 31.7 21 47 21 C47 21.33 47 21.66 47 22 C31.49 22 15.98 22 0 22 C0 14.74 0 7.48 0 0 Z " fill="#1A1A1A" transform="translate(530,316)"/>
<path d="M0 0 C10.2274342 -0.56819079 19.2701572 2.74607626 28 8 C29.78515625 9.65625 29.78515625 9.65625 31 11 C29.34908222 15.29238623 26.26245434 17.8793915 23 21 C19.07077546 19.37767101 16.2415312 16.68251859 13.1875 13.8125 C12.39617676 13.07700928 12.39617676 13.07700928 11.58886719 12.32666016 C7.63610706 8.63685188 3.73838494 4.90831153 0 1 C0 0.67 0 0.34 0 0 Z " fill="#FFFFFF" transform="translate(458,452)"/>
<path d="M0 0 C0.66 0 1.32 0 2 0 C2 23.43 2 46.86 2 71 C-5.92 71 -13.84 71 -22 71 C-22 67.7 -22 64.4 -22 61 C-21.67 61 -21.34 61 -21 61 C-21 63.64 -21 66.28 -21 69 C-14.07 69 -7.14 69 0 69 C0 46.23 0 23.46 0 0 Z " fill="#1A1A1A" transform="translate(745,387)"/>
<path d="M0 0 C0.67387756 -0.00572021 1.34775513 -0.01144043 2.04205322 -0.01733398 C3.9902534 -0.02893358 5.93855704 -0.0129588 7.88671875 0.00390625 C9.02713623 0.01365479 10.16755371 0.02340332 11.3425293 0.03344727 C14.56462246 0.47180026 15.95071347 1.26113554 18.3125 3.4375 C17.46655273 3.42702637 16.62060547 3.41655273 15.74902344 3.40576172 C12.55079188 3.37127355 9.35265642 3.34640643 6.15429688 3.32763672 C4.78121788 3.31770081 3.40815933 3.30414739 2.03515625 3.28662109 C-9.66743232 3.14119419 -20.71820933 3.80446023 -31.6875 8.125 C-32.69804443 8.51582764 -32.69804443 8.51582764 -33.72900391 8.91455078 C-43.42209475 12.79040863 -51.73832876 18.14029822 -59.7265625 24.8359375 C-61.6875 26.4375 -61.6875 26.4375 -63.6875 27.4375 C-63.3575 25.7875 -63.0275 24.1375 -62.6875 22.4375 C-61.6975 22.4375 -60.7075 22.4375 -59.6875 22.4375 C-59.3575 21.4475 -59.0275 20.4575 -58.6875 19.4375 C-57.6975 19.4375 -56.7075 19.4375 -55.6875 19.4375 C-55.6875 18.4475 -55.6875 17.4575 -55.6875 16.4375 C-50.0625 13.4375 -50.0625 13.4375 -46.6875 13.4375 C-46.6875 12.7775 -46.6875 12.1175 -46.6875 11.4375 C-44.58578133 10.5980118 -42.48103375 9.76610344 -40.375 8.9375 C-39.20324219 8.4734375 -38.03148437 8.009375 -36.82421875 7.53125 C-33.6875 6.4375 -33.6875 6.4375 -30.6875 6.4375 C-30.6875 5.7775 -30.6875 5.1175 -30.6875 4.4375 C-20.61892822 0.48072793 -10.70638894 0.01658471 0 0 Z " fill="#C9A84C" transform="translate(312.6875,244.5625)"/>
<path d="M0 0 C27.15332438 10.28319614 47.06934217 30.5264766 59.91796875 56.13671875 C61 59 61 59 60 62 C59.74734375 61.48953125 59.4946875 60.9790625 59.234375 60.453125 C52.79822781 45.33281992 52.79822781 45.33281992 42 34 C41.62875 33.319375 41.2575 32.63875 40.875 31.9375 C36.16817663 24.56347671 29.452658 19.65854939 22.21728516 14.96972656 C20.78022841 14.02582325 19.38553328 13.01802902 18 12 C18 11.34 18 10.68 18 10 C17.4225 9.855625 16.845 9.71125 16.25 9.5625 C15.5075 9.376875 14.765 9.19125 14 9 C13.319375 8.87625 12.63875 8.7525 11.9375 8.625 C10 8 10 8 8.6875 6.625 C6.1519792 4.18338738 3.2612893 3.29220897 0 2 C0 1.34 0 0.68 0 0 Z " fill="#C9A84C" transform="translate(352,239)"/>
<path d="M0 0 C9.86404198 14.79606297 7.04830849 37.75899456 3.94921875 54.23828125 C2.91689374 58.32934703 1.55305773 62.08037812 0 66 C-0.9642787 62.60778951 -0.88748018 61.06256266 0.375 57.75 C2.149647 52.34539324 2.48331431 47.17294224 2.70849609 41.53417969 C2.84176948 38.23384589 3.00986825 35.16517527 4 32 C3.67 32 3.34 32 3 32 C2.97494385 31.39937744 2.9498877 30.79875488 2.92407227 30.17993164 C2.8084472 27.47388563 2.68557064 24.76821717 2.5625 22.0625 C2.52318359 21.11697266 2.48386719 20.17144531 2.44335938 19.19726562 C2.40146484 18.29814453 2.35957031 17.39902344 2.31640625 16.47265625 C2.26141968 15.22367554 2.26141968 15.22367554 2.20532227 13.94946289 C2.20632897 11.99661142 2.20632897 11.99661142 1 11 C0.76636119 9.15108054 0.58696365 7.29511969 0.4375 5.4375 C0.35371094 4.42558594 0.26992188 3.41367187 0.18359375 2.37109375 C0.12300781 1.58863281 0.06242187 0.80617188 0 0 Z " fill="#FFFFFF" transform="translate(400,307)"/>
<path d="M0 0 C3.60566863 1.60251939 6.46368264 3.82376217 9.5625 6.25 C17.39866611 12.2324494 25.16800581 16.78253321 34.71875 19.3515625 C36.82697186 19.95081734 38.74879404 20.67600087 40.75 21.5625 C47.21638873 24.42263348 52.99677218 25.4740659 60 26 C56.7231039 28.32113474 54.04074335 28.06389171 50.17236328 27.44970703 C33.2555124 23.94770216 10.07392281 14.90940576 0 0 Z " fill="#C9A84C" transform="translate(241,417)"/>
<path d="M0 0 C0.66 0 1.32 0 2 0 C3.2745084 2.35223997 4.54465898 4.70666931 5.8125 7.0625 C6.16892578 7.71927734 6.52535156 8.37605469 6.89257812 9.05273438 C10.58534506 15.9300893 13.34189662 22.41179899 14.625 30.125 C14.86705057 31.50262823 15.10923493 32.88023296 15.3515625 34.2578125 C15.56554687 35.49273437 15.77953125 36.72765625 16 38 C16.17635986 38.80187744 16.35271973 39.60375488 16.53442383 40.42993164 C16.99531074 42.97411438 17.11431422 45.28129649 17.09765625 47.86328125 C17.09443359 48.74951172 17.09121094 49.63574219 17.08789062 50.54882812 C17.07951172 51.46083984 17.07113281 52.37285156 17.0625 53.3125 C17.05798828 54.24384766 17.05347656 55.17519531 17.04882812 56.13476562 C17.03709234 58.42324373 17.02067363 60.71158808 17 63 C16.67 63 16.34 63 16 63 C15.96132813 61.63294922 15.96132813 61.63294922 15.921875 60.23828125 C15.16650992 42.98505603 12.21769858 26.74602784 5 11 C4.50628906 9.89011719 4.01257813 8.78023438 3.50390625 7.63671875 C2.35728967 5.08038093 1.19140425 2.5356878 0 0 Z " fill="#1A1A1A" transform="translate(405,283)"/>
<path d="M0 0 C0.99 0.66 1.98 1.32 3 2 C-4 9 -4 9 -6.015625 10.90234375 C-9.68451448 14.78067771 -12.2256287 19.46247685 -15 24 C-15.40734375 24.63421875 -15.8146875 25.2684375 -16.234375 25.921875 C-18.7543893 29.99266733 -20.02584621 34.07088414 -21.19140625 38.66796875 C-22.07595828 41.21906807 -23.28433834 42.93265146 -25 45 C-26.36996568 40.89010296 -24.81634229 38.44485742 -23.125 34.6875 C-22.64897339 33.62160645 -22.64897339 33.62160645 -22.16333008 32.53417969 C-16.54711067 20.34423039 -8.8169924 10.05026691 0 0 Z " fill="#C9A84C" transform="translate(237,263)"/>
<path d="M0 0 C0.99 0.33 1.98 0.66 3 1 C-7.63616271 9.23364125 -18.96351203 14.44557838 -31.875 17.9375 C-32.64706787 18.14906738 -33.41913574 18.36063477 -34.21459961 18.57861328 C-39.59214931 19.9332324 -44.45780653 20.18180158 -50 20 C-50 19.67 -50 19.34 -50 19 C-48.86111328 18.80083984 -48.86111328 18.80083984 -47.69921875 18.59765625 C-46.70535156 18.42105469 -45.71148437 18.24445313 -44.6875 18.0625 C-43.70136719 17.88847656 -42.71523438 17.71445312 -41.69921875 17.53515625 C-38.91810787 17.04253153 -38.91810787 17.04253153 -36 16 C-33.77502379 15.62039634 -31.54513808 15.26907991 -29.3125 14.9375 C-28.13300781 14.76089844 -26.95351563 14.58429688 -25.73828125 14.40234375 C-24.83464844 14.26957031 -23.93101562 14.13679688 -23 14 C-23 13.34 -23 12.68 -23 12 C-20.03 11.34 -17.06 10.68 -14 10 C-14 9.34 -14 8.68 -14 8 C-12.68 8 -11.36 8 -10 8 C-10 7.34 -10 6.68 -10 6 C-8.71086513 5.32845067 -7.41859796 4.66291141 -6.125 4 C-5.40570313 3.62875 -4.68640625 3.2575 -3.9453125 2.875 C-2 2 -2 2 0 2 C0 1.34 0 0.68 0 0 Z " fill="#C9A84C" transform="translate(373,425)"/>
<path d="M0 0 C0.66 0.33 1.32 0.66 2 1 C-1.23256976 4.28190459 -4.47157606 7.55726457 -7.71679688 10.82666016 C-8.82049298 11.94043123 -9.92238973 13.05598832 -11.02246094 14.17333984 C-12.60145074 15.77651237 -14.18674114 17.37320911 -15.7734375 18.96875 C-16.26621185 19.47184692 -16.75898621 19.97494385 -17.26669312 20.49328613 C-18.473756 21.70074513 -19.73278596 22.85582929 -21 24 C-21.66 24 -22.32 24 -23 24 C-18.54080455 14.18977001 -8.78497798 5.91641374 0 0 Z " fill="#FFFFFF" transform="translate(261,262)"/>
<path d="M0 0 C-1.00417969 0.47308594 -2.00835937 0.94617188 -3.04296875 1.43359375 C-13.8972864 6.64606644 -23.38618204 12.74385645 -33 20 C-32.67 18.35 -32.34 16.7 -32 15 C-31.01 15 -30.02 15 -29 15 C-28.67 14.01 -28.34 13.02 -28 12 C-27.01 12 -26.02 12 -25 12 C-25 11.01 -25 10.02 -25 9 C-19.375 6 -19.375 6 -16 6 C-16 5.34 -16 4.68 -16 4 C-13.90049414 3.13444052 -11.7952093 2.28288723 -9.6875 1.4375 C-8.51574219 0.96183594 -7.34398437 0.48617187 -6.13671875 -0.00390625 C-3 -1 -3 -1 0 0 Z " fill="#C9A84C" transform="translate(282,252)"/>
<path d="M0 0 C0.66 0.33 1.32 0.66 2 1 C1.86722656 1.98355469 1.73445312 2.96710938 1.59765625 3.98046875 C0.09228443 15.63785186 -0.5638333 27.2579332 -1 39 C-3.8158923 34.77616155 -3.34045422 31.22017226 -3.3125 26.25 C-3.31121094 25.31583252 -3.30992187 24.38166504 -3.30859375 23.41918945 C-3.19770646 15.32095194 -2.02207777 7.83555136 0 0 Z " fill="#C9A84C" transform="translate(209,313)"/>
<path d="M0 0 C0.66 0 1.32 0 2 0 C0.37312664 3.47785682 -1.66148112 6.59472382 -3.75 9.8125 C-7.60328253 15.88727296 -10.27365541 22.15630652 -12.7734375 28.8828125 C-14 32 -14 32 -16 35 C-15.19538815 25.98834723 -12.13352398 18.98197734 -8 11 C-7.34 11 -6.68 11 -6 11 C-6 10.01 -6 9.02 -6 8 C-5.34 8 -4.68 8 -4 8 C-3.67 6.35 -3.34 4.7 -3 3 C-2.01 2.67 -1.02 2.34 0 2 C0 1.34 0 0.68 0 0 Z " fill="#C9A84C" transform="translate(239,280)"/>
<path d="M0 0 C1 3 1 3 -0.1730957 5.41088867 C-2.01879547 8.02663717 -3.95215388 10.17978291 -6.23046875 12.42578125 C-7.03291016 13.22177734 -7.83535156 14.01777344 -8.66210938 14.83789062 C-9.49548828 15.65451172 -10.32886719 16.47113281 -11.1875 17.3125 C-12.03248047 18.14845703 -12.87746094 18.98441406 -13.74804688 19.84570312 C-15.82757725 21.90173598 -17.91163963 23.95294296 -20 26 C-20.99 25.34 -21.98 24.68 -23 24 C-22.33355469 23.50113281 -21.66710937 23.00226563 -20.98046875 22.48828125 C-13.24692187 16.46368599 -4.46738689 8.93477377 0 0 Z " fill="#C9A84C" transform="translate(390,390)"/>
<path d="M0 0 C13.57438665 0.7144414 25.45841685 6.24632487 37 13 C34 14 34 14 31.72265625 12.92578125 C30.84480469 12.39339844 29.96695312 11.86101562 29.0625 11.3125 C22.20656176 7.40779345 14.90579684 4.31592187 7 3.4375 C3.78744448 2.96900232 2.36103205 2.17214948 0 0 Z " fill="#FFFFFF" transform="translate(327,248)"/>
<path d="M0 0 C0.66 0.33 1.32 0.66 2 1 C1.50628906 1.55429687 1.01257813 2.10859375 0.50390625 2.6796875 C-0.45708984 3.76636719 -0.45708984 3.76636719 -1.4375 4.875 C-2.07558594 5.59429687 -2.71367187 6.31359375 -3.37109375 7.0546875 C-5.05014465 8.90750491 -5.05014465 8.90750491 -6 11 C-9.08149079 12.86052274 -12.09166465 14.59363945 -15.375 16.0625 C-17.35764383 16.96674867 -17.35764383 16.96674867 -18 20 C-19.8125 21.25 -19.8125 21.25 -22 22 C-24.13671875 21.546875 -24.13671875 21.546875 -26 21 C-25.34515625 20.62230469 -24.6903125 20.24460937 -24.015625 19.85546875 C-14.8982157 14.35669224 -7.44906086 7.54972384 0 0 Z " fill="#1A1A1A" transform="translate(393,410)"/>
<path d="M0 0 C0.99 0.33 1.98 0.66 3 1 C2.46890625 1.95519531 1.9378125 2.91039062 1.390625 3.89453125 C-2.73902017 11.41903359 -6.40288013 18.78148251 -9 27 C-9.66 27 -10.32 27 -11 27 C-9.55563558 18.78608922 -5.81926153 11.34967135 -2 4 C-1.33146396 2.66760299 -0.66431408 1.33450704 0 0 Z " fill="#1A1A1A" transform="translate(220,281)"/>
<path d="M0 0 C0.33 0 0.66 0 1 0 C1.35962753 5.75404049 0.29600019 9.75199957 -2 15 C-2.34804688 15.804375 -2.69609375 16.60875 -3.0546875 17.4375 C-4.31965643 20.31830516 -5.5928231 23.18564619 -7 26 C-7.66 26 -8.32 26 -9 26 C-7.17029052 20.44310454 -5.19855331 14.94231895 -3.21875 9.4375 C-2.10749491 6.30319076 -1.04001296 3.15855787 0 0 Z " fill="#1A1A1A" transform="translate(418,362)"/>
<path d="M0 0 C9.55012261 1.71302648 20.63071915 13.32712446 26 21 C25.67 21.66 25.34 22.32 25 23 C24.12601562 21.96552734 24.12601562 21.96552734 23.234375 20.91015625 C17.78719693 14.66645686 12.34983735 9.68619494 5.56640625 4.875 C3.48739426 3.35608713 1.73774193 1.8850082 0 0 Z " fill="#C9A84C" transform="translate(361,259)"/>
<path d="M0 0 C-1.8631214 4.15619389 -3.53102765 6.36365192 -7.77734375 8.203125 C-8.82019531 8.54859375 -9.86304688 8.8940625 -10.9375 9.25 C-11.97777344 9.60578125 -13.01804687 9.9615625 -14.08984375 10.328125 C-17.03557137 11.00821245 -18.1992223 10.83493037 -21 10 C-19.87980469 9.44570313 -18.75960938 8.89140625 -17.60546875 8.3203125 C-16.13275962 7.58864809 -14.66010628 6.85687139 -13.1875 6.125 C-12.44951172 5.76019531 -11.71152344 5.39539063 -10.95117188 5.01953125 C-10.23896484 4.66503906 -9.52675781 4.31054688 -8.79296875 3.9453125 C-8.1383667 3.62062988 -7.48376465 3.29594727 -6.80932617 2.96142578 C-1.23616049 0 -1.23616049 0 0 0 Z " fill="#C9A84C" transform="translate(367,415)"/>
<path d="M0 0 C4.3346239 6.50193585 4.37588771 13.34476504 4.625 20.9375 C4.66367187 21.90751953 4.70234375 22.87753906 4.7421875 23.87695312 C4.83575076 26.25112076 4.92149208 28.62529492 5 31 C4.34 31.33 3.68 31.66 3 32 C2.97494385 31.39937744 2.9498877 30.79875488 2.92407227 30.17993164 C2.8084472 27.47388563 2.68557064 24.76821717 2.5625 22.0625 C2.52318359 21.11697266 2.48386719 20.17144531 2.44335938 19.19726562 C2.40146484 18.29814453 2.35957031 17.39902344 2.31640625 16.47265625 C2.26141968 15.22367554 2.26141968 15.22367554 2.20532227 13.94946289 C2.20632897 11.99661142 2.20632897 11.99661142 1 11 C0.76636119 9.15108054 0.58696365 7.29511969 0.4375 5.4375 C0.35371094 4.42558594 0.26992188 3.41367187 0.18359375 2.37109375 C0.12300781 1.58863281 0.06242187 0.80617188 0 0 Z " fill="#FFFFFF" transform="translate(400,307)"/>
<path d="M0 0 C4.79861307 2.15572211 9.01082713 5.3197841 13.3359375 8.27929688 C17.10964012 10.83187193 20.86205642 13.05913792 25 15 C24.34 15.66 23.68 16.32 23 17 C20.36 15.68 17.72 14.36 15 13 C15 12.34 15 11.68 15 11 C14.278125 10.731875 13.55625 10.46375 12.8125 10.1875 C10.00233617 9.00098638 7.51583443 7.72514361 5 6 C5 5.34 5 4.68 5 4 C2.525 3.01 2.525 3.01 0 2 C0 1.34 0 0.68 0 0 Z " fill="#1A1A1A" transform="translate(242,420)"/>
<path d="M0 0 C5.73589971 -0.35802755 9.7050356 0.72010383 14.9375 3 C15.62134766 3.28617188 16.30519531 3.57234375 17.00976562 3.8671875 C18.67785269 4.56708417 20.33962483 5.28199993 22 6 C22 6.66 22 7.32 22 8 C22.99 8.33 23.98 8.66 25 9 C24.01 9.495 24.01 9.495 23 10 C20.38222304 8.9653407 17.85986108 7.87504344 15.3125 6.6875 C10.26115056 4.35142644 5.39598327 2.3931962 0 1 C0 0.67 0 0.34 0 0 Z " fill="#C9A84C" transform="translate(336,249)"/>
<path d="M0 0 C9.24 0 18.48 0 28 0 C26.68 2.31 25.36 4.62 24 7 C23.67 6.01 23.34 5.02 23 4 C23.33 3.67 23.66 3.34 24 3 C21.44276771 1.72138385 19.63262898 1.88663391 16.7734375 1.90234375 C15.2265625 1.90717773 15.2265625 1.90717773 13.6484375 1.91210938 C12.56820312 1.92048828 11.48796875 1.92886719 10.375 1.9375 C9.28703125 1.94201172 8.1990625 1.94652344 7.078125 1.95117188 C4.38536211 1.96298224 1.69270812 1.97945222 -1 2 C-0.67 1.34 -0.34 0.68 0 0 Z " fill="#1A1A1A" transform="translate(843,351)"/>
<path d="M0 0 C1.00693162 3.12179408 0.97289724 4.98969669 0.00390625 8.109375 C-0.22490234 8.86347656 -0.45371094 9.61757813 -0.68945312 10.39453125 C-0.93630859 11.17183594 -1.18316406 11.94914062 -1.4375 12.75 C-1.68048828 13.54277344 -1.92347656 14.33554687 -2.17382812 15.15234375 C-2.77354195 17.10435346 -3.38558121 19.05256883 -4 21 C-5.10165903 17.21542354 -4.70717336 14.89473212 -3.6875 11.0625 C-3.42324219 10.04285156 -3.15898437 9.02320313 -2.88671875 7.97265625 C-2.06942121 5.23272927 -1.11035128 2.63284169 0 0 Z " fill="#C9A84C" transform="translate(417,359)"/>
<path d="M0 0 C5.39594333 5.06891647 9.89692605 10.84538907 14 17 C13.01 17.33 12.02 17.66 11 18 C10.59136719 17.29230469 10.18273437 16.58460938 9.76171875 15.85546875 C7.29757941 11.8614868 4.4610025 8.17600153 1.64453125 4.42578125 C0 2 0 2 0 0 Z " fill="#1A1A1A" transform="translate(221,395)"/>
<path d="M0 0 C2.14453125 0.26953125 2.14453125 0.26953125 4.8125 0.8125 C5.68519531 0.98394531 6.55789063 1.15539062 7.45703125 1.33203125 C9.866859 1.96502748 11.82627526 2.79913109 14 4 C14 4.66 14 5.32 14 6 C12.06077578 5.54901762 10.12366406 5.08894441 8.1875 4.625 C7.10855469 4.36976563 6.02960938 4.11453125 4.91796875 3.8515625 C2 3 2 3 -1 1 C-0.67 0.67 -0.34 0.34 0 0 Z " fill="#1A1A1A" transform="translate(338,233)"/>
<path d="M0 0 C3.17325358 2.62260075 4.28734555 5.64750421 5.75 9.4375 C6.19859375 10.57058594 6.6471875 11.70367187 7.109375 12.87109375 C7.9689772 15.89101199 8.14949552 17.14728855 7 20 C1.62870159 6.3667426 1.62870159 6.3667426 0 0 Z " fill="#FFFFFF" transform="translate(223,361)"/>
<path d="M0 0 C1 3 1 3 -0.125 5.375 C-2.17042131 8.23858983 -4.44693946 10.58494274 -7 13 C-7.66 12.67 -8.32 12.34 -9 12 C-6.03 8.04 -3.06 4.08 0 0 Z " fill="#C9A84C" transform="translate(390,390)"/>
<path d="M0 0 C0.99 0.66 1.98 1.32 3 2 C1.92643323 3.15498897 0.84070212 4.29867867 -0.25 5.4375 C-0.85328125 6.07558594 -1.4565625 6.71367187 -2.078125 7.37109375 C-4.10048016 9.08516306 -5.41270605 9.59358878 -8 10 C-7.04367001 8.70684939 -6.08486149 7.41553147 -5.125 6.125 C-4.59132812 5.40570313 -4.05765625 4.68640625 -3.5078125 3.9453125 C-2 2 -2 2 0 0 Z " fill="#C9A84C" transform="translate(237,263)"/>
<path d="M0 0 C0 0.99 0 1.98 0 3 C-1.86328125 4.71875 -1.86328125 4.71875 -4.3125 6.5 C-7.07758738 8.53040233 -9.64479069 10.49997199 -12 13 C-12.66 12.67 -13.32 12.34 -14 12 C-9.61869443 7.41853326 -5.45156722 3.27094033 0 0 Z " fill="#C9A84C" transform="translate(252,251)"/>
<path d="M0 0 C-5.28 2.31 -10.56 4.62 -16 7 C-16 6.01 -16 5.02 -16 4 C-13.90049414 3.13444052 -11.7952093 2.28288723 -9.6875 1.4375 C-8.51574219 0.96183594 -7.34398437 0.48617187 -6.13671875 -0.00390625 C-3 -1 -3 -1 0 0 Z " fill="#C9A84C" transform="translate(282,252)"/>
<path d="M0 0 C1.99954746 -0.04254356 4.00041636 -0.04080783 6 0 C6.33 0.33 6.66 0.66 7 1 C8.68183948 1.23287008 10.3712416 1.41264166 12.0625 1.5625 C12.98160156 1.64628906 13.90070313 1.73007812 14.84765625 1.81640625 C15.91306641 1.90728516 15.91306641 1.90728516 17 2 C12.87124599 4.39081524 9.54526628 3.98105748 5 3 C2 1.9375 2 1.9375 0 1 C0 0.67 0 0.34 0 0 Z " fill="#C9A84C" transform="translate(284,441)"/>
<path d="M0 0 C0.66 0.33 1.32 0.66 2 1 C0.09118566 2.03544174 -1.82739204 3.05290085 -3.75 4.0625 C-4.81734375 4.63097656 -5.8846875 5.19945312 -6.984375 5.78515625 C-10.02593537 7.01044806 -11.04893565 7.25348607 -14 6 C-12.23002526 5.18563132 -10.45898848 4.3735706 -8.6875 3.5625 C-7.70136719 3.11003906 -6.71523438 2.65757812 -5.69921875 2.19140625 C-3 1 -3 1 0 0 Z " fill="#FFFFFF" transform="translate(283,251)"/>
<path d="M0 0 C3.23861303 1.44424635 5.61969163 3.25772247 8.25 5.625 C8.95640625 6.25664062 9.6628125 6.88828125 10.390625 7.5390625 C10.92171875 8.02117187 11.4528125 8.50328125 12 9 C11.34 9.66 10.68 10.32 10 11 C8.32742645 9.5484451 6.66208242 8.08855591 5 6.625 C3.6078125 5.40683594 3.6078125 5.40683594 2.1875 4.1640625 C1.465625 3.44992188 0.74375 2.73578125 0 2 C0 1.34 0 0.68 0 0 Z " fill="#1A1A1A" transform="translate(378,252)"/>
<path d="M0 0 C2.74931827 0.68732957 4.53418821 1.35560222 6.22265625 3.69140625 C7.20324656 5.43116325 8.10688055 7.2137611 9 9 C6 9 6 9 4.39453125 7.5390625 C3.61142578 6.59160156 3.61142578 6.59160156 2.8125 5.625 C2.28269531 4.99851562 1.75289063 4.37203125 1.20703125 3.7265625 C0 2 0 2 0 0 Z " fill="#1A1A1A" transform="translate(390,263)"/>
<path d="M0 0 C0 0.99 0 1.98 0 3 C-1.26418246 3.69965443 -2.53665402 4.38434763 -3.8125 5.0625 C-4.52019531 5.44535156 -5.22789062 5.82820312 -5.95703125 6.22265625 C-8 7 -8 7 -11 6 C-7.37 4.02 -3.74 2.04 0 0 Z " fill="#C9A84C" transform="translate(267,242)"/>
<path d="M0 0 C0 3.58912412 -0.66436554 4.10857029 -3 6.6875 C-3.556875 7.31011719 -4.11375 7.93273437 -4.6875 8.57421875 C-5.120625 9.04472656 -5.55375 9.51523437 -6 10 C-6.66 9.67 -7.32 9.34 -8 9 C-7.04663979 7.68388323 -6.08714226 6.37221039 -5.125 5.0625 C-4.59132813 4.33160156 -4.05765625 3.60070312 -3.5078125 2.84765625 C-2 1 -2 1 0 0 Z " fill="#1A1A1A" transform="translate(660,403)"/>
<path d="M0 0 C0.33 0 0.66 0 1 0 C1.33 3.63 1.66 7.26 2 11 C1.34 10.67 0.68 10.34 0 10 C-0.44921875 7.96875 -0.44921875 7.96875 -0.6875 5.5 C-0.77386719 4.6853125 -0.86023438 3.870625 -0.94921875 3.03125 C-0.96597656 2.3609375 -0.98273438 1.690625 -1 1 C-0.67 0.67 -0.34 0.34 0 0 Z " fill="#C9A84C" transform="translate(418,319)"/>
<path d="M0 0 C2.55803184 3.83704776 4.34505724 7.75712791 3.625 12.4375 C3.41875 12.953125 3.2125 13.46875 3 14 C0.81005752 10.71508627 0.64722661 9.16904361 0.375 5.3125 C0.30023438 4.31863281 0.22546875 3.32476562 0.1484375 2.30078125 C0.09945313 1.54152344 0.05046875 0.78226562 0 0 Z " fill="#FFFFFF" transform="translate(400,307)"/>
<path d="M0 0 C0 0.66 0 1.32 0 2 C-2.2727675 3.49524178 -4.5679943 4.78399715 -7 6 C-7.99 5.34 -8.98 4.68 -10 4 C-8.71086513 3.32845067 -7.41859796 2.66291141 -6.125 2 C-5.40570313 1.62875 -4.68640625 1.2575 -3.9453125 0.875 C-2 0 -2 0 0 0 Z " fill="#1A1A1A" transform="translate(360,436)"/>
<path d="M0 0 C2.49505962 2.49505962 2.35948376 3.67328888 2.625 7.125 C2.69976562 8.03507812 2.77453125 8.94515625 2.8515625 9.8828125 C2.92503906 10.93082031 2.92503906 10.93082031 3 12 C0.89366282 10.29171079 0.06198392 9.47851584 -0.29296875 6.73828125 C-0.25816406 5.93777344 -0.22335938 5.13726562 -0.1875 4.3125 C-0.16042969 3.50425781 -0.13335937 2.69601562 -0.10546875 1.86328125 C-0.07066406 1.24839844 -0.03585938 0.63351562 0 0 Z " fill="#FFFFFF" transform="translate(223,352)"/>
<path d="M0 0 C2.76276177 0.52268466 5.3260876 1.10869587 8 2 C8 2.66 8 3.32 8 4 C8.99 4.33 9.98 4.66 11 5 C10.01 5.495 10.01 5.495 9 6 C6.8359375 5.00390625 6.8359375 5.00390625 4.375 3.5625 C3.55773437 3.08941406 2.74046875 2.61632812 1.8984375 2.12890625 C1.27195312 1.75636719 0.64546875 1.38382813 0 1 C0 0.67 0 0.34 0 0 Z " fill="#C9A84C" transform="translate(350,253)"/>
<path d="M0 0 C4.75481646 0.57634139 7.97048212 2.55068521 12 5 C11.34 5.66 10.68 6.32 10 7 C8.33073546 6.02526874 6.66464358 5.04510211 5 4.0625 C4.071875 3.51722656 3.14375 2.97195312 2.1875 2.41015625 C1.465625 1.94480469 0.74375 1.47945312 0 1 C0 0.67 0 0.34 0 0 Z " fill="#1A1A1A" transform="translate(365,245)"/>
<path d="M0 0 C0.33 0.66 0.66 1.32 1 2 C-0.98 4.64 -2.96 7.28 -5 10 C-5 6.89448334 -4.4606285 5.64738916 -3 3 C-2.34 3 -1.68 3 -1 3 C-0.67 2.01 -0.34 1.02 0 0 Z " fill="#C9A84C" transform="translate(402,396)"/>
<path d="M0 0 C0.6875 1.6875 0.6875 1.6875 1 4 C-0.3125 6.75 -0.3125 6.75 -2 9 C-2.66 9 -3.32 9 -4 9 C-2.94124926 5.59687262 -1.99097846 2.98646769 0 0 Z " fill="#1A1A1A" transform="translate(413,379)"/>
<path d="M0 0 C2.93200474 2.85276137 5.64315404 5.65079784 8 9 C6.0625 8.1875 6.0625 8.1875 4 7 C3.67 6.01 3.34 5.02 3 4 C2.01 3.67 1.02 3.34 0 3 C0 2.01 0 1.02 0 0 Z " fill="#FFFFFF" transform="translate(379,274)"/>
<path d="M0 0 C0.66 0 1.32 0 2 0 C0.60667426 3.36720387 -0.9789286 4.9859524 -4 7 C-3.67 5.35 -3.34 3.7 -3 2 C-2.01 2 -1.02 2 0 2 C0 1.34 0 0.68 0 0 Z " fill="#C9A84C" transform="translate(253,265)"/>
<path d="M0 0 C7.50769231 0.49230769 7.50769231 0.49230769 10 3.0625 C10.33 3.701875 10.66 4.34125 11 5 C7.27566618 3.7874262 3.62197194 2.49140021 0 1 C0 0.67 0 0.34 0 0 Z " fill="#1A1A1A" transform="translate(355,240)"/>
<path d="M0 0 C3.71599191 -0.20086443 4.77208445 -0.1519437 8 2 C8 2.66 8 3.32 8 4 C5.64828869 3.40138258 3.3140622 2.73075648 1 2 C0.67 1.34 0.34 0.68 0 0 Z " fill="#FFFFFF" transform="translate(270,420)"/>
<path d="M0 0 C1.485 0.99 1.485 0.99 3 2 C3 2.66 3 3.32 3 4 C3.66 4 4.32 4 5 4 C4.67 4.99 4.34 5.98 4 7 C2 5.75 2 5.75 0 4 C0 2.68 0 1.36 0 0 Z " fill="#C9A84C" transform="translate(235,409)"/>
<path d="M0 0 C-2.5654594 2.5654594 -4.47686668 2.54046087 -8 3 C-8.33 2.34 -8.66 1.68 -9 1 C-3.375 -1.125 -3.375 -1.125 0 0 Z " fill="#C9A84C" transform="translate(285,237)"/>
</svg>
